<svg width="1500" height="1500" xmlns="http://www.w3.org/2000/svg"><defs><linearGradient id="a" gradientTransform="rotate(90)"><stop offset="5%" stop-color="#a7dbd8"/><stop offset="95%" stop-color="#bde4e1"/></linearGradient><linearGradient id="b" gradientTransform="rotate(90)"><stop offset="5%" stop-color="#e0e4cc"/><stop offset="95%" stop-color="#e7ead8"/></linearGradient><linearGradient id="c" gradientTransform="rotate(90)"><stop offset="5%" stop-color="#f38630"/><stop offset="95%" stop-color="#f6a463"/></linearGradient><linearGradient id="d" gradientTransform="rotate(90)"><stop offset="5%" stop-color="#fa6900"/><stop offset="95%" stop-color="#fb8e3f"/></linearGradient></defs><path fill="#69d2e7" d="M0 0h1500v1500H0z"/><path d="M0 300c63.806-14.186 127.613-28.372 190-24s123.356 27.3 186 41c62.644 13.7 126.965 18.17 190 7 63.035-11.17 124.786-37.982 188-43 63.214-5.018 127.892 11.758 191 19 63.108 7.242 124.644 4.95 185 5 60.356.05 119.53 2.443 181 2 61.47-.443 125.235-3.721 229-7l-40 1200H0Z" fill="url(#a)"/><path d="M0 600c67.054-.622 134.107-1.243 193-4 58.893-2.757 109.625-7.65 173-12s139.393-8.16 205 4 120.804 40.286 181 41c60.196.714 125.393-25.984 187-30 61.607-4.016 119.625 14.65 182 10s129.107-32.614 193-38c63.893-5.386 124.946 11.807 226 29l-40 900H0Z" fill="url(#b)"/><path d="M0 900c58.072 3.793 116.144 7.585 182 5s139.495-11.548 201-9c61.505 2.548 110.876 16.606 173 20 62.124 3.394 137-3.875 201-16s117.124-29.106 178-27c60.876 2.106 129.505 23.298 194 28 64.495 4.702 124.856-7.085 186-10 61.144-2.915 123.072 3.043 225 9l-40 600H0Z" fill="url(#c)"/><path d="M0 1200c59.259 7.808 118.517 15.617 182 15 63.483-.617 131.19-9.659 195-12 63.81-2.341 123.725 2.017 185-2 61.275-4.017 123.91-16.41 185-12s120.632 25.626 186 34c65.368 8.374 136.56 3.909 199-2s116.126-13.26 176-17c59.874-3.74 125.937-3.87 232-4l-40 300H0Z" fill="url(#d)"/></svg>